<svg width="91" height="91" viewBox="0 0 91 91" fill="none" xmlns="http://www.w3.org/2000/svg">
<path d="M0.156616 22.0518C0.156616 10.402 9.60061 0.958008 21.2504 0.958008H69.0629C80.7126 0.958008 90.1566 10.402 90.1566 22.0518V69.8643C90.1566 81.514 80.7126 90.958 69.0629 90.958H21.2504C9.60061 90.958 0.156616 81.514 0.156616 69.8643V22.0518Z" fill="#00B06C"/>
<path d="M11.066 27.9812C11.066 21.768 16.1028 16.7312 22.316 16.7312H68.4758C74.689 16.7312 79.7258 21.768 79.7258 27.9812V64.8626C79.7258 71.0758 74.689 76.1126 68.4758 76.1126H22.316C16.1028 76.1126 11.066 71.0758 11.066 64.8626V27.9812Z" fill="white"/>
<path fill-rule="evenodd" clip-rule="evenodd" d="M10.7035 21.3486C10.7035 17.0771 14.1663 13.6143 18.4379 13.6143H72.5567C76.8283 13.6143 80.2911 17.0771 80.2911 21.3486V69.9005C80.2911 74.1721 76.8283 77.6349 72.5567 77.6349H18.4379C14.1663 77.6349 10.7035 74.1721 10.7035 69.9005V21.3486ZM46.2414 67.0418C80.953 67.0418 82.5959 35.9896 52.0719 32.5936C51.4595 32.5254 50.9111 33.0086 50.9111 33.6248C50.9111 34.1917 51.362 34.6501 51.9239 34.7256C53.3402 34.9158 54.6447 35.4064 55.8562 36.1869C60.3996 39.1132 63.3863 44.0549 63.3863 49.6589C63.3863 56.1542 59.3895 61.7714 53.5973 64.3858C53.5148 64.4227 53.4315 64.4596 53.3476 64.4965C52.0877 65.0411 50.0092 64.6037 49.842 62.9484V31.4569C49.842 30.8523 50.3321 30.3621 50.9367 30.3621L62.7737 30.3618C62.7867 30.3618 62.7995 30.3621 62.8125 30.3621C64.1993 30.3621 65.3316 29.2242 65.3316 27.8335V26.7366C65.3316 26.6875 65.2908 26.6489 65.2417 26.6489H25.755C25.7059 26.6489 25.6658 26.6875 25.6658 26.7366V27.8335C25.6658 29.2242 26.7987 30.3621 28.1849 30.3621C28.1972 30.3621 28.2113 30.3618 28.2251 30.3618L40.0614 30.3621C40.666 30.3621 41.1561 30.8523 41.1561 31.4569V62.9484C40.9889 64.6044 38.9104 65.0411 37.6505 64.4965C37.5666 64.4596 37.4833 64.4234 37.4008 64.3858C31.6079 61.7714 27.6125 56.1542 27.6125 49.6589C27.6125 44.0549 30.5971 39.1125 35.1419 36.1869C36.3533 35.4064 37.6577 34.9159 39.0735 34.7257C39.6354 34.6502 40.0863 34.1917 40.0863 33.6248C40.0863 33.0086 39.5379 32.5254 38.9255 32.5936C10.855 35.7167 9.9882 62.2298 37.028 66.4707C41.248 67.1326 44.756 63.579 44.756 59.3075V31.1051C44.756 30.6944 45.089 30.3614 45.4997 30.3614C45.9105 30.3614 46.2435 30.6944 46.2435 31.1051V67.0398C46.2435 67.0409 46.2425 67.0418 46.2414 67.0418ZM28.7809 25.7004C27.4234 25.7004 26.8253 24.208 28.1828 24.208C28.1953 24.208 28.2091 24.208 28.223 24.208H62.773C62.7862 24.208 62.7987 24.208 62.8118 24.208C64.1701 24.208 63.5719 25.7004 62.2136 25.7004H28.7809Z" fill="#00B06C"/>
</svg>
